<svg width="30" height="30" viewBox="0 0 30 30" fill="none" xmlns="http://www.w3.org/2000/svg">
<circle cx="15" cy="15" r="15" fill="#F3CCCC"/>
<path d="M23.8414 9.57617L18.3823 15L23.8414 20.4239C23.94 20.2177 23.9999 19.9896 23.9999 19.7461V10.2539C23.9999 10.0104 23.94 9.78243 23.8414 9.57617Z" fill="black"/>
<path d="M22.418 8.67188H7.58207C7.33855 8.67188 7.11056 8.73175 6.9043 8.83043L13.8815 15.7725C14.4984 16.3894 15.5017 16.3894 16.1186 15.7725L23.0958 8.83043C22.8895 8.73175 22.6615 8.67188 22.418 8.67188Z" fill="black"/>
<path d="M6.15855 9.57617C6.05987 9.78243 6 10.0104 6 10.2539V19.7461C6 19.9897 6.05987 20.2177 6.15855 20.4239L11.6176 15L6.15855 9.57617Z" fill="black"/>
<path d="M17.6368 15.7456L16.8643 16.5181C15.8363 17.546 14.1637 17.546 13.1358 16.5181L12.3633 15.7456L6.9043 21.1695C7.11056 21.2682 7.33855 21.328 7.58207 21.328H22.418C22.6615 21.328 22.8895 21.2682 23.0958 21.1695L17.6368 15.7456Z" fill="black"/>
</svg>
