<svg width="30" height="30" viewBox="0 0 30 30" fill="none" xmlns="http://www.w3.org/2000/svg">
<circle cx="15" cy="15" r="15" fill="#F3CCCC"/>
<path d="M14.5189 6C10.9244 6 8 8.92437 8 12.5189C8 16.9798 13.8338 23.5287 14.0822 23.8053C14.3155 24.0651 14.7228 24.0647 14.9557 23.8053C15.2041 23.5287 21.0379 16.9798 21.0379 12.5189C21.0378 8.92437 18.1134 6 14.5189 6ZM14.5189 15.7987C12.7104 15.7987 11.2391 14.3274 11.2391 12.5189C11.2391 10.7104 12.7105 9.23909 14.5189 9.23909C16.3274 9.23909 17.7987 10.7104 17.7987 12.5189C17.7987 14.3274 16.3274 15.7987 14.5189 15.7987Z" fill="black"/>
</svg>
