<svg width="30" height="30" viewBox="0 0 30 30" fill="none" xmlns="http://www.w3.org/2000/svg">
<circle cx="15" cy="15" r="15" fill="#F3CCCC"/>
<path d="M23.9606 19.9467C23.9097 19.7933 23.5858 19.5673 22.9891 19.2693C22.8274 19.1753 22.5971 19.0477 22.2991 18.8857C22.0008 18.7237 21.73 18.5745 21.4873 18.4381C21.2441 18.3018 21.0162 18.1697 20.8033 18.042C20.7693 18.0165 20.6627 17.942 20.4838 17.8181C20.3046 17.6947 20.1535 17.603 20.0297 17.5432C19.9062 17.4838 19.7847 17.4539 19.6653 17.4539C19.4949 17.4539 19.2821 17.5754 19.0265 17.8181C18.7709 18.0612 18.5365 18.3252 18.3235 18.611C18.1105 18.8966 17.8846 19.1606 17.6462 19.4035C17.4075 19.6465 17.2113 19.7679 17.0581 19.7679C16.9811 19.7679 16.8852 19.7464 16.7703 19.7041C16.6554 19.6615 16.568 19.625 16.508 19.5956C16.4485 19.5656 16.3465 19.5061 16.2015 19.4163C16.0563 19.3268 15.9755 19.2778 15.9585 19.2693C14.7909 18.6214 13.7896 17.8799 12.9543 17.045C12.1193 16.2095 11.3777 15.2083 10.73 14.0406C10.7215 14.0235 10.6724 13.9425 10.5829 13.7977C10.4934 13.6528 10.4337 13.5507 10.4039 13.4908C10.3741 13.4312 10.3378 13.3438 10.2953 13.2288C10.2528 13.1138 10.2314 13.018 10.2314 12.9412C10.2314 12.7879 10.3529 12.5917 10.5958 12.3531C10.8387 12.1146 11.1029 11.8886 11.3883 11.6757C11.674 11.4628 11.938 11.2283 12.1809 10.9728C12.4238 10.717 12.5452 10.5041 12.5452 10.3337C12.5452 10.2144 12.5154 10.0929 12.4558 9.96932C12.3962 9.84552 12.3045 9.69444 12.1809 9.51538C12.0572 9.33641 11.9827 9.22998 11.9571 9.19572C11.8294 8.98281 11.6974 8.75486 11.5609 8.51195C11.4244 8.26908 11.2754 7.99836 11.1134 7.70011C10.9515 7.40199 10.8237 7.17179 10.7299 7.00988C10.4318 6.41342 10.206 6.08942 10.0525 6.03846C9.99283 6.0129 9.90328 6 9.78408 6C9.55384 6 9.25349 6.04254 8.88278 6.12788C8.51195 6.21309 8.22014 6.30246 8.00705 6.39636C7.58091 6.57524 7.12926 7.09509 6.65194 7.95574C6.2173 8.75669 6 9.54946 6 10.3334C6 10.5634 6.01491 10.7871 6.04473 11.0046C6.07455 11.2219 6.12784 11.467 6.20463 11.7397C6.28128 12.0124 6.34312 12.215 6.38987 12.3469C6.43666 12.4789 6.52402 12.7154 6.6519 13.0564C6.7796 13.3973 6.85639 13.606 6.88196 13.6827C7.18021 14.518 7.5339 15.2636 7.94293 15.9199C8.61592 17.0107 9.53432 18.1381 10.6976 19.3015C11.8609 20.4647 12.988 21.3831 14.079 22.0564C14.7352 22.4653 15.4811 22.819 16.3162 23.1175C16.393 23.1429 16.6017 23.2195 16.9425 23.3477C17.2834 23.4754 17.5199 23.5628 17.6519 23.6097C17.784 23.6566 17.9866 23.7185 18.2591 23.7953C18.5321 23.8721 18.7769 23.9254 18.9942 23.9554C19.2117 23.9848 19.4354 24 19.6654 24C20.4493 24 21.2421 23.7826 22.0432 23.348C22.9038 22.8708 23.4235 22.4191 23.6025 21.9926C23.6966 21.7798 23.7857 21.4879 23.871 21.117C23.9564 20.7464 23.9989 20.4461 23.9989 20.2159C23.9992 20.0962 23.9863 20.0069 23.9606 19.9467Z" fill="black"/>
</svg>
