<svg width="30" height="30" viewBox="0 0 30 30" fill="none" xmlns="http://www.w3.org/2000/svg">
<path d="M15 0C6.717 0 0 6.717 0 15C0 23.283 6.717 30 15 30C23.283 30 30 23.283 30 15C30 6.717 23.283 0 15 0ZM15.3179 23.7334C15.3177 23.7334 15.3181 23.7334 15.3179 23.7334H15.3143C13.8116 23.7328 12.3351 23.356 11.0239 22.641L6.26472 23.8891L7.53845 19.2382C6.7527 17.8773 6.33934 16.3332 6.34003 14.7514C6.34209 9.80301 10.3695 5.77721 15.3179 5.77721C17.7193 5.77812 19.9736 6.71288 21.6685 8.40912C23.3636 10.1056 24.2965 12.3605 24.2956 14.7585C24.2935 19.7072 20.2657 23.7334 15.3179 23.7334Z" fill="#F3CCCC"/>
<path d="M18.2327 19.2727L18.2326 19.2727C17.8252 19.3335 17.2943 19.3612 16.7072 19.1749L16.7071 19.1749C16.3775 19.0703 15.951 18.9294 15.4048 18.6938L15.4047 18.6938C13.2258 17.7531 11.7624 15.6458 11.5067 15.2776C11.4896 15.2531 11.4779 15.2363 11.4718 15.2281L11.4697 15.2253C11.4078 15.1426 11.1713 14.8271 10.9489 14.3892C10.7258 13.9499 10.5059 13.3664 10.5059 12.7582C10.5059 11.6255 11.0721 11.0221 11.3131 10.7653C11.3292 10.7482 11.3437 10.7327 11.3566 10.7187L11.3566 10.7187C11.6177 10.4337 11.9325 10.3569 12.1392 10.3569C12.2894 10.3569 12.4442 10.3583 12.5813 10.365L12.5815 10.365C12.5822 10.3651 12.5841 10.365 12.5872 10.3649C12.6194 10.3635 12.7784 10.3568 12.9116 10.4197C13.0782 10.4984 13.2027 10.6587 13.3046 10.9037C13.3668 11.053 13.4578 11.2746 13.5536 11.5076C13.6022 11.6259 13.652 11.7471 13.6998 11.8633C13.8456 12.2172 13.9664 12.5075 13.989 12.5528L13.9891 12.553C14.0607 12.6964 14.1334 12.9175 14.0079 13.1691L14.0078 13.1694C13.9592 13.2665 13.8656 13.4011 13.7655 13.5359C13.6615 13.6759 13.5377 13.8331 13.4181 13.9815L13.418 13.9816C13.4058 13.9967 13.3931 14.0118 13.3824 14.0244C13.3804 14.0268 13.3785 14.0291 13.3766 14.0313C13.364 14.0463 13.3541 14.0583 13.3453 14.0696C13.3281 14.0919 13.3221 14.1033 13.32 14.1083C13.3208 14.1129 13.3245 14.1282 13.341 14.1564L13.341 14.1565C13.4675 14.3736 13.9022 15.081 14.5393 15.6492C15.2218 16.2577 15.8025 16.5106 16.1236 16.6505C16.1904 16.6796 16.246 16.7038 16.2889 16.7253M18.2327 19.2727L19.8404 16.8927M18.2327 19.2727C18.495 19.2334 18.8604 19.0792 19.1791 18.8749C19.4918 18.6746 19.8227 18.3861 19.9452 18.0432L19.7097 17.9591M18.2327 19.2727L19.7097 17.9591M16.2889 16.7253L16.1769 16.9488L16.2888 16.7252C16.2889 16.7253 16.2889 16.7253 16.2889 16.7253ZM16.2889 16.7253C16.3843 16.773 16.4197 16.7713 16.4247 16.7707L16.4249 16.7707C16.4255 16.7706 16.4272 16.7705 16.4322 16.7674C16.4394 16.763 16.4535 16.7524 16.4748 16.728L16.6629 16.8927L16.4745 16.7283C16.6083 16.5751 17.0264 16.083 17.165 15.8748C17.2666 15.7222 17.3993 15.6168 17.5761 15.5966C17.7251 15.5796 17.8681 15.6316 17.9633 15.6663M17.9633 15.6663C17.9632 15.6663 17.9631 15.6662 17.963 15.6662L17.8778 15.9012L17.9633 15.6663ZM17.9633 15.6663C18.0818 15.7093 18.4239 15.8713 18.7459 16.0267C19.0763 16.1862 19.4091 16.3504 19.5224 16.4071L19.5226 16.4071C19.5581 16.4249 19.5955 16.4431 19.6324 16.4609C19.697 16.4922 19.7602 16.5228 19.8089 16.5496C19.8863 16.5921 19.9901 16.6562 20.0549 16.7643M20.0549 16.7643L19.8404 16.8927M20.0549 16.7643C20.0548 16.7641 20.0547 16.764 20.0547 16.7639L19.8404 16.8927M20.0549 16.7643C20.1014 16.8418 20.1141 16.9392 20.1193 17.0055C20.1256 17.0857 20.1244 17.1811 20.1154 17.286C20.0972 17.4965 20.046 17.7607 19.9452 18.0431L19.7097 17.9591M19.8404 16.8927C19.8967 16.9863 19.8967 17.4352 19.7097 17.9591M8.10547 14.7521C8.10724 10.7772 11.3426 7.54302 15.3206 7.54297L8.10547 14.7521ZM20.4191 9.65733C21.781 11.0203 22.5302 12.8308 22.5295 14.7579L15.3207 7.54297C17.2472 7.54365 19.0572 8.29433 20.4191 9.65733Z" fill="#F3CCCC" stroke="black" stroke-width="0.5"/>
</svg>
